<svg width="16" height="16" viewBox="0 0 16 16" fill="none" xmlns="http://www.w3.org/2000/svg">
<rect width="16" height="16" fill="white"/>
<path d="M5.8716 10.3789L7.27799 8.89867L8.87776 10.3789H11.6202L7.26041 6.09691L2.93576 10.3789H5.8716Z" fill="#2D383F"/>
<path d="M9.89747 3.50661L7.82305 5.62115L9.19428 7.03084L9.89747 6.32599L13.7475 10.1674C12.8685 12.511 10.6183 14.185 7.96369 14.185C4.55319 14.185 1.79315 11.4185 1.79315 8C1.81073 4.5815 4.57077 1.81498 7.98127 1.81498C11.005 1.81498 13.5365 4.01762 14.0463 6.88987L15.9098 8.86344C15.945 8.5815 15.9625 8.28194 15.9625 8C15.9625 5.86784 15.1363 3.85903 13.6244 2.34361C12.1125 0.828194 10.1084 0 7.98127 0C5.83652 0 3.84999 0.828194 2.33812 2.34361C0.826254 3.85903 0 5.85022 0 8C0 10.1498 0.826254 12.141 2.33812 13.6564C3.84999 15.1718 5.8541 16 7.98127 16C10.1084 16 12.1125 15.1718 13.6244 13.6564C14.5561 12.7225 15.2242 11.6123 15.5934 10.3965C15.6637 10.185 15.7164 9.95595 15.7692 9.74449L14.1518 8.03524L9.89747 3.50661Z" fill="#2D383F"/>
</svg>
