<svg xmlns="http://www.w3.org/2000/svg" xmlns:xlink="http://www.w3.org/1999/xlink"><defs>
<clipPath id="clip0_131_4065">
<rect width="12" height="12" fill="white"/>
</clipPath>

<clipPath id="clip0_2613_640">
<rect width="25" height="25" fill="white"/>
</clipPath>

<clipPath id="clip0_248_2161">
<rect width="25" height="25" fill="white"/>
</clipPath>

<clipPath id="clip0_248_2546">
<rect width="15" height="14" fill="white"/>
</clipPath>

<clipPath id="clip0_248_2542">
<rect width="15" height="14" fill="white"/>
</clipPath>
</defs><symbol id="icon-address-pin" viewBox="0 0 20 26"><g fill="none">
<path d="M18.8635 9.62847C18.8635 4.96342 14.8951 1.18164 9.99987 1.18164C5.10462 1.18164 1.13623 4.96342 1.13623 9.62847V10.1372C1.13623 12.0038 1.74823 13.8237 2.88667 15.3426L9.98236 24.8094C9.99094 24.8209 10.0088 24.8209 10.0174 24.8094L17.1131 15.3426C18.2515 13.8237 18.8635 12.0038 18.8635 10.1372V9.62847Z" stroke="#2D383F" stroke-linecap="round" stroke-linejoin="round"/>
<path d="M8.2674 6.25049C9.36221 5.74805 10.6375 5.74805 11.7323 6.25049C12.8271 6.75293 13.6223 7.70313 13.8927 8.8321C14.1631 9.96107 13.8793 11.1459 13.1217 12.0513C12.364 12.9567 11.215 13.484 9.99987 13.484C8.78472 13.484 7.6357 12.9567 6.87807 12.0513C6.12044 11.1459 5.83665 9.96107 6.10705 8.8321C6.37744 7.70313 7.17259 6.75293 8.2674 6.25049Z" stroke="#2D383F" stroke-linecap="round" stroke-linejoin="round"/>
</g></symbol><symbol id="icon-arrow-right" viewBox="0 0 9 14"><g fill="none">
<path d="M1 13L7 7L0.999999 1" stroke="currentColor" stroke-width="2"/>
</g></symbol><symbol id="icon-audio-play-btn" viewBox="0 0 47 47"><g fill="none">
<path d="M47 23.5C47 29.7326 44.5241 35.7099 40.117 40.117C35.7099 44.5241 29.7326 47 23.5 47C17.2674 47 11.2901 44.5241 6.88299 40.117C2.47589 35.7099 0 29.7326 0 23.5C0 17.2674 2.47589 11.2901 6.88299 6.88299C11.2901 2.47589 17.2674 0 23.5 0C29.7326 0 35.7099 2.47589 40.117 6.88299C44.5241 11.2901 47 17.2674 47 23.5V23.5ZM19.9456 14.9607C19.726 14.8043 19.4676 14.7114 19.1987 14.6922C18.9298 14.6729 18.6607 14.728 18.4211 14.8515C18.1814 14.975 17.9804 15.162 17.84 15.3922C17.6995 15.6223 17.6252 15.8867 17.625 16.1562V30.8438C17.6252 31.1133 17.6995 31.3777 17.84 31.6078C17.9804 31.838 18.1814 32.025 18.4211 32.1485C18.6607 32.272 18.9298 32.3271 19.1987 32.3078C19.4676 32.2886 19.726 32.1957 19.9456 32.0393L30.2269 24.6956C30.4173 24.5597 30.5725 24.3803 30.6795 24.1724C30.7866 23.9644 30.8425 23.7339 30.8425 23.5C30.8425 23.2661 30.7866 23.0356 30.6795 22.8276C30.5725 22.6197 30.4173 22.4403 30.2269 22.3044L19.9456 14.9607V14.9607Z" fill="#1C3374"/>
</g></symbol><symbol id="icon-boots" viewBox="0 0 24 24">
<path d="M23.6583 15.6155C24.404 13.2805 23.7904 10.6301 23.1385 8.79354C23.1342 8.72248 23.1123 8.65361 23.0746 8.59327C22.853 7.99671 22.6484 7.50669 22.4737 7.15302C22.7953 7.02497 23.0075 6.71509 23.0106 6.36898V2.8195C23.0106 2.34881 22.6291 1.96729 22.1584 1.96729H11.6889C11.4536 1.96686 11.2625 2.15728 11.2621 2.39265C11.2621 2.40144 11.2624 2.41023 11.2628 2.41896C11.4077 4.97561 11.2202 6.70987 10.6791 7.9328C10.6683 7.94494 10.6583 7.95778 10.6492 7.97115C10.6476 7.9924 10.6476 8.01381 10.6492 8.03506C10.4427 8.48024 10.1633 8.88776 9.82259 9.24095L9.78424 9.26652C9.78424 9.26652 9.78424 9.26652 9.78424 9.29634C9.28468 9.77279 8.70853 10.1617 8.07981 10.4468C6.98439 10.9329 5.86021 11.3512 4.71355 11.6996L4.49624 11.772C0.512129 13.093 -0.00772321 15.4877 0.000798953 16.6893C-0.000266318 16.7064 -0.000266318 16.7234 0.000798953 16.7404V19.7829C0.00143811 19.9309 0.07883 20.068 0.205331 20.1451C1.18176 20.7392 2.23574 21.1951 3.33722 21.5001C3.56375 21.5638 3.79907 21.4318 3.86278 21.2052C3.87476 21.1625 3.88003 21.1182 3.87838 21.074V20.976H4.50476V21.4021C4.50204 21.6132 4.65433 21.7944 4.86269 21.8282C5.23341 21.8878 5.60412 21.9347 5.96631 21.9645C6.08498 21.9745 6.20243 21.9343 6.29015 21.8537C6.37783 21.7724 6.42731 21.658 6.42651 21.5384V21.0015H7.05289V21.6066C7.05289 21.8419 7.24368 22.0327 7.479 22.0327C7.83693 22.0327 8.19486 22.0327 8.57835 21.9816C8.8003 21.9638 8.97107 21.7781 8.97037 21.5555V21.0015H9.59675V21.3765C9.59372 21.6118 9.782 21.8051 10.0173 21.8081C10.042 21.8084 10.0666 21.8066 10.091 21.8026C10.8732 21.6828 11.6442 21.499 12.3963 21.2529L12.4645 21.2231C15.4472 19.5187 17.3391 20.9206 17.4158 20.9802C17.4902 21.038 17.5816 21.0694 17.6758 21.0697H18.2041C18.4395 21.0697 18.6302 20.8789 18.6302 20.6436V19.9235H19.2396V20.6351C19.2396 20.8704 19.4304 21.0612 19.6657 21.0612H21.0378C21.2731 21.0612 21.4639 20.8704 21.4639 20.6351V19.9235H22.0945V20.6351C22.0945 20.8704 22.2853 21.0612 22.5206 21.0612H23.5731C23.8084 21.0612 23.9992 20.8704 23.9992 20.6351V16.0416C24.0034 15.8359 23.8599 15.6566 23.6583 15.6155ZM13.5468 2.82802H13.8962H22.1371V6.3562H13.5468V2.82802ZM8.1906 11.3246L8.19486 11.3502C8.54416 11.6338 8.86651 11.949 9.15786 12.2919C9.08058 12.4204 9.04073 12.568 9.04281 12.718C9.03988 13.1675 9.40191 13.5342 9.85135 13.5371C10.3008 13.5401 10.6676 13.178 10.6705 12.7286C10.6733 12.3051 10.3509 11.9504 9.92912 11.9126C9.6596 11.5452 9.35254 11.2067 9.01298 10.9028C9.39377 10.686 9.75202 10.432 10.0825 10.1443C10.4958 10.532 10.8803 10.9493 11.233 11.3928C11.0848 11.8171 11.3086 12.2813 11.7329 12.4296C12.1572 12.5778 12.6214 12.354 12.7697 11.9297C12.9179 11.5053 12.6941 11.0412 12.2698 10.8929C12.1817 10.8621 12.0891 10.8467 11.9957 10.8474H11.8935C11.5197 10.3768 11.1125 9.93396 10.6748 9.52218C10.8779 9.27211 11.0576 9.00398 11.2117 8.7211C11.8714 9.06449 12.5089 9.44873 13.1207 9.87159C13.1165 10.3258 13.4813 10.6973 13.9354 10.7015C14.3896 10.7057 14.7612 10.3409 14.7654 9.88677C14.7696 9.43259 14.4048 9.06102 13.9506 9.05682C13.8209 9.05559 13.6927 9.0851 13.5766 9.14294C12.9327 8.70704 12.2624 8.31145 11.5696 7.95836C12.0341 6.72265 12.2344 5.08214 12.1406 2.84507H12.6988V6.37324C12.6988 6.84393 13.0803 7.22546 13.551 7.22546H21.5363C21.6471 7.4513 21.8346 7.84331 22.0391 8.35464H21.8644C19.2758 8.37334 17.1925 10.4869 17.2112 13.0755C17.2218 14.5465 17.9224 15.9272 19.1032 16.8044C15.656 17.712 10.4703 18.79 6.10693 18.5088C6.91227 15.2917 5.94927 13.3103 5.32289 12.441C6.2983 12.1211 7.25561 11.7484 8.1906 11.3246ZM4.46641 12.6839C4.92661 13.2251 6.12823 15.0445 5.24619 18.3895C3.71082 18.2688 2.2196 17.8182 0.874321 17.0686C0.859034 16.9712 0.849074 16.873 0.844493 16.7745V16.7447C0.810404 15.8371 1.15129 13.8727 4.46641 12.6839ZM22.9467 20.209V19.4974C22.9467 19.262 22.7559 19.0713 22.5206 19.0713H21.042C20.8067 19.0713 20.6159 19.262 20.6159 19.4974V20.209H20.0918V19.4974C20.0918 19.262 19.901 19.0713 19.6657 19.0713H18.1956C17.9603 19.0713 17.7695 19.262 17.7695 19.4974V20.1919C17.19 19.8297 15.0722 18.7772 12.0682 20.4561C11.5337 20.6325 10.9886 20.7748 10.4362 20.8822V20.5882C10.4362 20.3529 10.2454 20.1621 10.0101 20.1621H8.54C8.30469 20.1621 8.1139 20.3529 8.1139 20.5882V21.172H7.89658V20.5754C7.89658 20.3401 7.70579 20.1493 7.47047 20.1493H5.99188C5.75656 20.1493 5.56577 20.3401 5.56577 20.5754V21.0825L5.34845 21.0527V20.5754C5.34845 20.3401 5.15767 20.1493 4.92235 20.1493H3.44375C3.22702 20.1478 3.04364 20.3091 3.01764 20.5243C2.26136 20.2753 1.53308 19.9482 0.844493 19.5485V18.023C2.70232 19.0073 5.10557 19.3781 7.66222 19.3781C14.4544 19.3781 22.2266 16.7788 23.1427 16.4677L23.147 20.209H22.9467ZM22.7379 15.7135C22.3757 15.8328 21.4852 16.1396 20.2537 16.4677C18.3473 15.5451 17.5497 13.2516 18.4724 11.3451C19.1036 10.041 20.4158 9.20393 21.8644 9.18129C22.0324 9.17895 22.2003 9.18747 22.3672 9.20686L22.3715 9.21964C22.9979 11.0263 23.5603 13.6043 22.7379 15.7135Z"/>
<path d="M15.1872 3.34375C14.5024 3.34375 13.9473 3.89892 13.9473 4.58372C13.9496 5.26757 14.5034 5.82135 15.1872 5.8237C15.872 5.8237 16.4272 5.26853 16.4272 4.58372C16.4272 3.89892 15.8721 3.34375 15.1872 3.34375ZM15.1872 4.97148C14.9731 4.97148 14.7995 4.7979 14.7995 4.58372C14.7995 4.36955 14.9731 4.19597 15.1872 4.19597C15.4014 4.19597 15.575 4.36955 15.575 4.58372C15.575 4.7979 15.4014 4.97148 15.1872 4.97148Z"/>
</symbol><symbol id="icon-crown" viewBox="0 0 20 19"><g fill="none">
<path d="M16.0789 18.182H3.92128M19.091 6.46407L16.4316 15.2773H3.56863L0.90918 6.46407L6.15616 9.64946L10.0001 1.81836L13.844 9.64946L19.091 6.46407Z" stroke="#0266C1"/>
</g></symbol><symbol id="icon-leaf" viewBox="0 0 20 14"><g fill="none">
<path d="M9.71852 11.7678C9.10239 9.1652 7.29057 6.97473 4.79593 5.81647C3.56735 5.24604 2.23902 4.95654 0.90918 4.94797C0.986955 6.79219 1.66762 8.58738 2.88672 10.0612C4.60041 12.1331 7.1929 13.3461 9.93922 13.3638C9.91677 12.8308 9.84371 12.2966 9.71852 11.7678ZM9.71852 11.7678C9.21273 9.63126 7.90108 7.77249 6.06744 6.53449C6.09839 6.34989 6.13557 6.16565 6.17904 5.98206C6.70032 3.78008 8.07754 1.87312 10.0001 0.636719C11.9226 1.87312 13.2998 3.78008 13.8211 5.98206C13.8645 6.16564 13.9017 6.34987 13.9327 6.53446C12.099 7.77247 10.7875 9.63125 10.2817 11.7678M9.71852 11.7678C9.84367 12.2965 9.91667 12.8305 9.93914 13.3633C9.97716 13.3638 10.0152 13.364 10.0533 13.364C10.8232 13.364 11.5814 13.27 12.312 13.0895C12.3161 13.084 12.3203 13.0785 12.3244 13.073C11.5928 13.2594 10.833 13.3588 10.061 13.3638M10.2817 11.7678C10.8978 9.1652 12.7096 6.97473 15.2042 5.81647C16.4328 5.24604 17.7612 4.95654 19.091 4.94797C19.0132 6.79219 18.3326 8.58738 17.1135 10.0612C15.3998 12.1331 12.8073 13.3461 10.061 13.3638M10.2817 11.7678C10.1565 12.2966 10.0834 12.8308 10.061 13.3638" stroke="#0266C1" stroke-linecap="round" stroke-linejoin="round"/>
</g></symbol><symbol id="icon-level" viewBox="0 0 12 12"><g fill="none">
<g clip-path="url(#clip0_131_4065)">
<path d="M10.9091 11.4546H8.94549V0.545471H10.9091V11.4546Z" stroke="white" stroke-miterlimit="16" stroke-linecap="round"/>
<path d="M6.98185 11.4546V3.52068H5.01821L5.01822 11.4546H6.98185Z" stroke="white" stroke-miterlimit="16" stroke-linecap="round"/>
<path d="M3.05458 11.4546V6.49588H1.09094V11.4546H3.05458Z" stroke="white" stroke-miterlimit="16" stroke-linecap="round"/>
</g>

</g></symbol><symbol id="icon-mail" viewBox="0 0 26 18"><g fill="none">
<path d="M24.818 2.56592V15.4346C24.818 16.4499 24.0621 17.273 23.1297 17.273H2.86995C1.93752 17.273 1.18164 16.4499 1.18164 15.4346V2.56592M24.818 2.56592C24.818 1.55061 24.0621 0.727539 23.1297 0.727539H2.86995C1.93752 0.727539 1.18164 1.55061 1.18164 2.56592M24.818 2.56592L15.1973 11.5452C13.9328 12.7254 12.0669 12.7254 10.8024 11.5452L1.18164 2.56592" stroke="#2D383F" stroke-linecap="round" stroke-linejoin="round"/>
</g></symbol><symbol id="icon-map" viewBox="0 0 25 25"><g fill="none">
<g clip-path="url(#clip0_2613_640)">
<path d="M24.1704 22.2803V6.70123C24.1823 6.44571 23.9848 6.22897 23.7293 6.2171C23.6748 6.21456 23.6204 6.22168 23.5684 6.23812V6.26127L21.4844 6.91426C21.7026 6.33016 21.8321 5.71665 21.8688 5.09423C21.8688 2.28077 19.588 0 16.7745 0C13.9611 0 11.6803 2.28077 11.6803 5.09423C11.7128 5.68754 11.833 6.27279 12.0369 6.8309L8.59135 5.59902C8.55135 5.5941 8.51094 5.5941 8.47094 5.59902H8.43389C8.37837 5.60001 8.32344 5.61101 8.2718 5.63144L1.12598 8.41011C0.961171 8.47281 0.846262 8.62361 0.82959 8.79913V16.246V24.3967C0.830342 24.6525 1.03828 24.8592 1.29409 24.8585C1.35065 24.8583 1.40669 24.8478 1.45942 24.8274L8.44315 22.1229L16.4087 24.9756C16.5048 25.0081 16.6089 25.0081 16.7051 24.9756L23.8463 22.7434C24.0469 22.6806 24.18 22.4904 24.1704 22.2803ZM16.7745 0.926224C19.0765 0.926224 20.9425 2.79228 20.9425 5.09423C20.9425 6.905 18.2241 11.9066 16.7745 14.3565C15.325 11.8881 12.6065 6.88184 12.6065 5.09423C12.6065 2.79228 14.4726 0.926224 16.7745 0.926224ZM23.2581 21.9608L17.0246 23.9105V20.3769C17.0246 20.1212 16.8173 19.9138 16.5615 19.9138C16.3058 19.9138 16.0984 20.1212 16.0984 20.3769V23.8781L8.90163 21.3032V18.3392C8.90163 18.0835 8.69427 17.8761 8.43852 17.8761C8.18277 17.8761 7.97541 18.0835 7.97541 18.3392V21.3032L1.75581 23.7252V16.5655L4.04359 15.6393C4.2884 15.5652 4.42675 15.3067 4.35266 15.0618C4.27856 14.817 4.02003 14.6787 3.77521 14.7528C3.74963 14.7605 3.72473 14.7705 3.70083 14.7825L1.75576 15.5652V9.11867L7.97535 6.71049V8.09983C7.97535 8.35558 8.18271 8.56294 8.43846 8.56294C8.69421 8.56294 8.90157 8.35558 8.90157 8.09983V6.69197L12.4536 7.96553C13.5928 10.5687 14.9032 13.0936 16.3762 15.5235C16.5088 15.7422 16.7936 15.8119 17.0123 15.6793C17.076 15.6407 17.1295 15.5872 17.1681 15.5235C18.6339 13.1079 19.9396 10.5985 21.0768 8.01184L23.2442 7.33106L23.258 14.9215L20.9101 15.4911C20.6543 15.5218 20.4718 15.754 20.5025 16.0098C20.5332 16.2655 20.7655 16.448 21.0212 16.4173C21.0581 16.4218 21.0954 16.4218 21.1324 16.4173L23.258 15.8986V21.9608H23.2581Z" fill="#2D383F"/>
<path d="M16.7556 2.40332C15.2696 2.40332 14.0649 3.60799 14.0649 5.094C14.0649 6.58001 15.2696 7.78468 16.7556 7.78468C18.2406 7.78213 19.4438 6.57897 19.4463 5.094C19.4463 3.60799 18.2416 2.40332 16.7556 2.40332ZM16.7556 6.85846C15.7895 6.84584 15.0121 6.06028 15.0097 5.094H14.9912C14.9912 4.1195 15.7811 3.32954 16.7556 3.32954C17.7301 3.32954 18.5201 4.1195 18.5201 5.094C18.5201 6.0685 17.7301 6.85846 16.7556 6.85846Z" fill="#2D383F"/>
<path d="M10.6981 13.9672V13.9811L8.45661 13.0132C8.34251 12.9656 8.21411 12.9656 8.10001 13.0132L6.20589 13.7774C5.96802 13.8733 5.85294 14.1439 5.94886 14.3817C6.04478 14.6196 6.31536 14.7347 6.55322 14.6387L8.26673 13.9487L10.3276 14.8194C10.3861 14.8443 10.4492 14.8569 10.5128 14.8564C10.7686 14.8585 10.9776 14.6529 10.9797 14.3971C10.9812 14.2101 10.8701 14.0405 10.6981 13.9672Z" fill="#2D383F"/>
<path d="M18.27 16.6161C18.201 16.393 17.9766 16.2562 17.7467 16.2969L17.7513 16.2599L16.6028 16.5377L14.6578 15.6949C14.4224 15.5926 14.1487 15.7004 14.0465 15.9357C13.9442 16.171 14.052 16.4447 14.2873 16.547L16.3713 17.4732C16.4298 17.4982 16.4929 17.5108 16.5565 17.5103H16.6677L17.9644 17.1954C18.2087 17.1198 18.3455 16.8604 18.27 16.6161Z" fill="#2D383F"/>
</g>

</g></symbol><symbol id="icon-menu" viewBox="0 0 26 20"><g fill="none">
<path d="M0 0.54541H26V2.71534H0V0.54541Z" fill="white"/>
<path d="M0 17.2846H26V19.4545H0V17.2846Z" fill="white"/>
<path d="M0 8.91499H16.64V11.0849H0V8.91499Z" fill="white"/>
</g></symbol><symbol id="icon-moon" viewBox="0 0 12 12"><g fill="none">
<path d="M11.1966 6.75385C11.0851 6.72587 10.9736 6.75385 10.876 6.8238C10.5135 7.13159 10.0953 7.38341 9.6352 7.55129C9.20301 7.71918 8.72901 7.80312 8.22712 7.80312C7.09786 7.80312 6.0662 7.34144 5.32731 6.59996C4.58841 5.85848 4.12835 4.82321 4.12835 3.69C4.12835 3.21433 4.212 2.75266 4.35141 2.33295C4.50477 1.88526 4.72783 1.47955 5.0206 1.12979C5.14607 0.9759 5.11819 0.752056 4.96483 0.626144C4.86724 0.556193 4.75571 0.528213 4.64418 0.556193C3.45916 0.877968 2.4275 1.59147 1.6886 2.5428C0.977593 3.48015 0.54541 4.64133 0.54541 5.91444C0.54541 7.43937 1.15883 8.8244 2.16261 9.8317C3.16639 10.839 4.54659 11.4546 6.0662 11.4546C7.34881 11.4546 8.53383 11.0069 9.48184 10.2654C10.4438 9.50992 11.1409 8.43268 11.4336 7.20154C11.5033 6.99169 11.3918 6.79582 11.1966 6.75385ZM9.0636 9.67781C8.255 10.3214 7.22334 10.7131 6.09408 10.7131C4.76965 10.7131 3.57069 10.1675 2.70633 9.30007C1.84196 8.43268 1.29825 7.22952 1.29825 5.90045C1.29825 4.79522 1.66072 3.78793 2.28808 2.9765C2.72027 2.41689 3.26398 1.95521 3.89134 1.63344C3.82164 1.78733 3.75193 1.94122 3.69617 2.10911C3.51493 2.61275 3.43128 3.14438 3.43128 3.70399C3.43128 5.03306 3.97499 6.25021 4.83936 7.1176C5.70373 7.98499 6.91663 8.53061 8.24106 8.53061C8.8266 8.53061 9.38425 8.43268 9.90008 8.23681C10.0813 8.16686 10.2626 8.09691 10.4299 8.01297C10.0953 8.65652 9.6352 9.23012 9.0636 9.67781Z" fill="white"/>
</g></symbol><symbol id="icon-mountain" viewBox="0 0 25 25"><g fill="none">
<g clip-path="url(#clip0_248_2161)">
<path d="M23.4153 24.1879L19.3747 14.7901L15.5583 5.9074C15.4551 5.665 15.1749 5.55224 14.9325 5.65546C14.8192 5.70376 14.7289 5.79404 14.6806 5.9074L11.2744 13.8121L9.93871 16.9177L7.00963 10.1579C6.90634 9.91551 6.62614 9.80274 6.3838 9.90596C6.27044 9.95427 6.18016 10.0445 6.13186 10.1579L3.37928 16.517L0.0399368 24.1831C-0.0654315 24.4246 0.0448861 24.7058 0.286333 24.8112C0.347037 24.8377 0.412572 24.8513 0.478822 24.851H22.9765C23.2399 24.8508 23.4533 24.6371 23.4531 24.3736C23.4531 24.3098 23.4402 24.2467 23.4153 24.1879ZM15.1147 7.29561L18.2107 14.4943H17.1231L15.1576 12.3237C14.9804 12.1287 14.6787 12.1143 14.4837 12.2916C14.4531 12.3194 14.4263 12.351 14.4039 12.3857L13.6692 13.5211H12.4384L15.1147 7.29561ZM6.57074 11.5318L9.018 17.1896H7.68226C7.52007 17.1899 7.36914 17.2726 7.28154 17.4091L6.80449 18.1676L5.57371 16.4311C5.48474 16.3028 5.33864 16.2262 5.18253 16.226H4.54805L6.57074 11.5318ZM1.22779 23.8969L4.13302 17.1801H4.93446L6.42285 19.3029C6.51182 19.4312 6.65792 19.5078 6.81403 19.5081C6.97283 19.5046 7.11947 19.4223 7.20522 19.2886L7.93987 18.1532H9.42826L11.9137 23.8778L1.22779 23.8969ZM12.9584 23.8969L10.4587 18.1246L12.0282 14.4752H13.9364C14.0986 14.4749 14.2495 14.3923 14.3371 14.2558L14.8666 13.44L16.5554 15.3053C16.6455 15.4052 16.7738 15.4624 16.9084 15.4627H18.6162L22.2466 23.9112L12.9584 23.8969Z" fill="#2D383F"/>
<path d="M7.61096 2.08189C7.16093 0.922602 5.85626 0.347698 4.69703 0.797794C3.83387 1.13286 3.26385 1.96221 3.26028 2.8881C3.25557 2.97075 3.25557 3.05352 3.26028 3.13617C2.13241 3.65997 1.64278 4.99893 2.16658 6.12679C2.52932 6.90778 3.30572 7.41351 4.16667 7.42961L4.19052 7.44869H7.52987C9.01188 7.47112 10.2314 6.28786 10.2538 4.80584C10.2762 3.32383 9.09298 2.10431 7.61096 2.08189ZM7.55849 6.50891H4.21914C3.50512 6.58267 2.86653 6.0637 2.79277 5.34968C2.719 4.63565 3.23797 3.99706 3.952 3.9233C4.21026 3.87124 4.37747 3.61972 4.32541 3.3614C4.32141 3.34166 4.31622 3.32216 4.30978 3.30314C4.26321 3.16968 4.23906 3.02943 4.23823 2.8881C4.23417 2.17146 4.81176 1.58725 5.52841 1.58314C6.16234 1.5795 6.70606 2.03448 6.81429 2.65912C6.85812 2.90993 7.09122 3.08208 7.34382 3.0503C7.41531 3.04559 7.48699 3.04559 7.55849 3.0503C8.51354 3.0503 9.28779 3.82455 9.28779 4.7796C9.28779 5.73466 8.51354 6.50891 7.55849 6.50891Z" fill="#2D383F"/>
<path d="M23.6966 2.63997C23.7013 2.55733 23.7013 2.47456 23.6966 2.39191C23.6917 1.14836 22.6797 0.144172 21.4362 0.148943C20.517 0.152521 19.6936 0.714604 19.3539 1.56727C17.8794 1.59816 16.7046 2.81392 16.7269 4.29057C16.7493 5.77258 17.9688 6.95584 19.4508 6.93342H22.7902C24.0335 6.91016 25.0226 5.88343 24.9994 4.64006C24.9833 3.77911 24.4776 3.00271 23.6966 2.63997ZM24.0559 4.94758C23.9296 5.54008 23.4102 5.96632 22.8045 5.97455H19.4651C18.5101 5.97455 17.7358 5.2003 17.7358 4.24525C17.7358 3.29019 18.5101 2.51594 19.4651 2.51594C19.5366 2.51123 19.6083 2.51123 19.6798 2.51594C19.9212 2.54099 20.1429 2.38088 20.195 2.14384C20.3146 1.43727 20.9843 0.961417 21.6909 1.08098C22.3975 1.20054 22.8734 1.87026 22.7538 2.57688C22.7416 2.64862 22.7235 2.71922 22.6995 2.78792C22.6153 3.03754 22.7494 3.3082 22.9991 3.39246C23.0181 3.3989 23.0376 3.40415 23.0573 3.40808C23.7582 3.5574 24.2053 4.24668 24.0559 4.94758Z" fill="#2D383F"/>
</g>

</g></symbol><symbol id="icon-path" viewBox="0 0 20 20"><g fill="none">
<path d="M16.4936 7.97048H11.6235C10.0993 7.97048 8.86373 9.21519 8.86373 10.7506C8.86373 12.286 10.0993 13.5307 11.6235 13.5307H13.7339C15.258 13.5307 16.4936 14.7754 16.4936 16.3109C16.4936 17.8463 15.258 19.091 13.7339 19.091H3.50658M6.10399 14.4821C6.10399 13.037 4.94109 11.8655 3.50658 11.8655C2.07208 11.8655 0.90918 13.037 0.90918 14.4821V14.5804C0.90918 15.1542 1.08964 15.7133 1.42464 16.1773L3.50145 19.054C3.50398 19.0575 3.50918 19.0575 3.51171 19.054L5.58852 16.1773C5.92353 15.7133 6.10399 15.1542 6.10399 14.5804V14.4821ZM4.0087 13.405L4.02429 13.4124C4.33866 13.5622 4.56785 13.8485 4.64656 14.1897C4.72616 14.5347 4.64062 14.9005 4.41897 15.1755C4.19976 15.4474 3.86813 15.6084 3.52038 15.6084H3.49279C3.14503 15.6084 2.8134 15.4474 2.5942 15.1755C2.37255 14.9005 2.28701 14.5347 2.3666 14.1897C2.44532 13.8485 2.67451 13.5622 2.98888 13.4124L3.00447 13.405C3.32233 13.2535 3.69083 13.2535 4.0087 13.405ZM19.091 3.54417C19.091 2.09906 17.9281 0.90918 16.4936 0.90918C15.0591 0.90918 13.8962 2.09906 13.8962 3.54417C13.8962 4.11226 14.078 4.67136 14.4147 5.1271L16.4885 7.93432C16.491 7.93779 16.4962 7.93779 16.4987 7.93432L18.5725 5.1271C18.9092 4.67136 19.091 4.11226 19.091 3.54417ZM16.9887 2.41041L17.0239 2.42683C17.3302 2.56943 17.5545 2.84571 17.6326 3.17636C17.7126 3.51549 17.6296 3.8728 17.4085 4.14092L17.3974 4.15437C17.1818 4.41577 16.8619 4.56699 16.5246 4.56699H16.4626C16.1253 4.56699 15.8054 4.41577 15.5898 4.15437L15.5787 4.14092C15.3576 3.8728 15.2746 3.51549 15.3546 3.17636C15.4327 2.84571 15.657 2.56943 15.9633 2.42683L15.9985 2.41041C16.3126 2.26416 16.6746 2.26416 16.9887 2.41041Z" stroke="#0266C1" stroke-linecap="round"/>
</g></symbol><symbol id="icon-phone" viewBox="0 0 26 26"><g fill="none">
<path d="M22.8368 23.6885C22.4584 24.4342 21.6789 24.8974 20.8502 24.8067C20.494 24.7677 20.1382 24.72 19.783 24.6636C15.1541 23.9275 10.8761 21.7392 7.56222 18.4122C4.24829 15.0852 2.06855 10.7904 1.3354 6.14328C1.27919 5.78698 1.2317 5.43001 1.19289 5.07268C1.10253 4.24071 1.56391 3.45809 2.30667 3.07814L5.55725 1.41536C6.81529 0.771838 8.33752 1.5225 8.77994 2.8686C9.04827 3.68504 9.36516 4.48843 9.73023 5.2744C9.91316 5.66825 10.1072 6.0556 10.312 6.43607C10.7968 7.33683 10.4698 8.49216 9.54135 8.91583C8.19298 9.53113 7.87184 11.3091 8.91916 12.3605L13.5902 17.0499C14.6375 18.1014 16.4085 17.779 17.0214 16.4253C17.4666 15.4418 18.6736 15.0858 19.632 15.577C19.8643 15.6961 20.0991 15.8112 20.3363 15.9222C21.2349 16.3429 22.1563 16.6998 23.094 16.9925C24.4592 17.4186 25.2342 18.965 24.5851 20.2438L22.8368 23.6885Z" stroke="#2D383F" stroke-linecap="round" stroke-linejoin="round"/>
</g></symbol><symbol id="icon-pin" viewBox="0 0 9 12"><g fill="none">
<path d="M4.49981 0C2.01874 0 0 1.98191 0 4.41796C0 5.05338 0.132472 5.66006 0.39354 6.2213C1.51862 8.63833 3.67571 11.1902 4.31017 11.9146C4.35771 11.9688 4.42701 12 4.49994 12C4.57287 12 4.64217 11.9688 4.6897 11.9146C5.32392 11.1903 7.48101 8.63857 8.60646 6.2213C8.86765 5.66006 9 5.05338 9 4.41796C8.99975 1.98191 6.98101 0 4.49981 0ZM4.49981 6.71267C3.21099 6.71267 2.16234 5.68315 2.16234 4.41784C2.16234 3.15241 3.21099 2.12289 4.49981 2.12289C5.78864 2.12289 6.83728 3.15241 6.83728 4.41784C6.83741 5.68315 5.78876 6.71267 4.49981 6.71267Z" fill="white"/>
</g></symbol><symbol id="icon-shield" viewBox="0 0 18 20"><g fill="none">
<path d="M6.95474 9.92007L9.0002 11.9603L12.5798 8.38993M9.00015 0.90918C6.8899 1.98826 4.53888 2.56202 2.13565 2.56202C1.8112 2.56202 1.48769 2.55157 1.16561 2.53082C0.749843 4.42763 0.703842 6.40133 1.04698 8.34233C1.66124 11.817 3.48329 14.9648 6.19311 17.2327C7.06195 17.9599 8.00425 18.5817 9.00018 19.091C9.9961 18.5817 10.9384 17.9599 11.8072 17.2327C14.5171 14.9648 16.3391 11.817 16.9534 8.34233C17.2965 6.40133 17.2505 4.42763 16.8347 2.53081C16.5126 2.55156 16.1891 2.56202 15.8646 2.56202C13.4614 2.56202 11.1104 1.98826 9.00015 0.90918Z" stroke="#0266C1"/>
</g></symbol><symbol id="icon-social-ok" viewBox="0 0 9 16">
<path d="M4.5 2.42035C5.41587 2.42035 6.1607 3.18736 6.1607 4.1305C6.1607 5.0708 5.41587 5.83781 4.5 5.83781C3.58413 5.83781 2.8393 5.0708 2.8393 4.1305C2.8393 3.18736 3.58413 2.42035 4.5 2.42035ZM4.5 8.25816C6.71243 8.25816 8.51106 6.40597 8.51106 4.1305C8.51106 1.85219 6.71243 0 4.5 0C2.28757 0 0.491701 1.85219 0.491701 4.1305C0.491701 6.40597 2.28757 8.25816 4.5 8.25816ZM6.12208 11.6273C6.93863 11.4342 7.72485 11.1018 8.45037 10.6331C8.99934 10.278 9.16486 9.53083 8.82003 8.96551C8.47244 8.39735 7.74967 8.22691 7.19795 8.58485C5.55656 9.6473 3.44344 9.6473 1.79929 8.58485C1.25033 8.22691 0.524805 8.39735 0.179975 8.96551C-0.164855 9.53083 0.000663014 10.278 0.549632 10.6331C1.27515 11.1018 2.06136 11.4342 2.87792 11.6273L0.63515 13.934C0.177216 14.4056 0.177216 15.1726 0.63515 15.6442C0.866875 15.88 1.16481 15.9993 1.4655 15.9993C1.76619 15.9993 2.06688 15.88 2.29861 15.6442L4.5 13.3772L6.70415 15.6442C7.16208 16.1186 7.90416 16.1186 8.36485 15.6442C8.82278 15.1726 8.82278 14.4056 8.36485 13.934L6.12208 11.6273Z"/>
</symbol><symbol id="icon-social-reddit" viewBox="0 0 14 15">
<path d="M8.36171 0C7.91277 0 7.49149 0.244007 7.22128 0.59589C6.95106 0.947774 6.80213 1.37671 6.69362 1.82877C6.52128 2.55565 6.46808 3.36216 6.45532 4.08904C5.19361 4.17894 4.05105 4.57962 3.10211 5.19863C2.717 4.85188 2.25317 4.65925 1.80849 4.66438C1.3021 4.66952 0.821252 4.90325 0.463803 5.38356C-0.219178 6.30051 -0.140455 7.80051 0.651038 8.69178C0.602102 8.96661 0.565931 9.24914 0.565931 9.53425C0.565931 12.5548 3.44679 15 7 15C10.5532 15 13.4341 12.5522 13.4341 9.53425C13.4341 9.24914 13.3979 8.96661 13.349 8.69178C14.1405 7.80051 14.2192 6.30051 13.5362 5.38356C13.1788 4.90325 12.6979 4.66952 12.1915 4.66438C11.7468 4.65925 11.283 4.85188 10.8979 5.19863C9.9532 4.58219 8.81703 4.18151 7.5617 4.08904C7.57873 3.41866 7.62341 2.7226 7.74894 2.19863C7.82766 1.86986 7.92128 1.63099 8.02128 1.5C8.12128 1.36901 8.19362 1.31507 8.36171 1.31507C8.72554 1.31507 8.77235 1.44092 8.9915 1.74658C9.10214 1.90068 9.2298 2.09332 9.43405 2.28082C9.63831 2.46832 9.94044 2.63014 10.2681 2.63014V1.31507C10.1766 1.31507 10.1596 1.3125 10.0979 1.25342C10.0362 1.19435 9.95108 1.05822 9.82554 0.883562C9.57448 0.531678 9.08724 0 8.36171 0ZM11.9021 0.123288C11.0553 0.123288 10.3702 0.950343 10.3702 1.9726C10.3702 2.99486 11.0553 3.82192 11.9021 3.82192C12.749 3.82192 13.4341 2.99486 13.4341 1.9726C13.4341 0.950343 12.749 0.123288 11.9021 0.123288ZM11.9021 0.780822C12.4468 0.780822 12.8894 1.31507 12.8894 1.9726C12.8894 2.63014 12.4468 3.16438 11.9021 3.16438C11.3575 3.16438 10.9149 2.63014 10.9149 1.9726C10.9149 1.31507 11.3575 0.780822 11.9021 0.780822ZM7 5.11644C10.0149 5.11644 12.566 7.14298 12.566 9.53425C12.566 11.9281 10.0149 13.9521 7 13.9521C3.98509 13.9521 1.43402 11.9281 1.43402 9.53425C1.43402 7.14298 3.98509 5.11644 7 5.11644ZM1.82551 5.71233C1.97658 5.7149 2.13402 5.75599 2.28509 5.83562C1.73828 6.33647 1.30423 6.91182 1.00849 7.56164C0.80423 7.05308 0.85955 6.41866 1.11061 6.08219C1.29359 5.83562 1.54679 5.70976 1.82551 5.71233ZM12.1745 5.71233C12.4532 5.70976 12.7064 5.83562 12.8894 6.08219C13.1405 6.41866 13.1958 7.05308 12.9915 7.56164C12.6958 6.91182 12.2617 6.33647 11.7149 5.83562C11.866 5.75599 12.0234 5.7149 12.1745 5.71233ZM4.82127 7.35616C4.27658 7.35616 3.83403 7.89041 3.83403 8.54795C3.83403 9.20548 4.27658 9.73973 4.82127 9.73973C5.36595 9.73973 5.80851 9.20548 5.80851 8.54795C5.80851 7.89041 5.36595 7.35616 4.82127 7.35616ZM9.17873 7.35616C8.63405 7.35616 8.19149 7.89041 8.19149 8.54795C8.19149 9.20548 8.63405 9.73973 9.17873 9.73973C9.72342 9.73973 10.166 9.20548 10.166 8.54795C10.166 7.89041 9.72342 7.35616 9.17873 7.35616ZM4.29361 11.4041C4.64042 12.2697 5.71276 13.1096 7 13.1096C8.28724 13.1096 9.37661 12.2697 9.72342 11.4041C9.09363 11.8947 8.10001 12.226 7 12.226C5.9 12.226 4.9234 11.8947 4.29361 11.4041Z"/>
</symbol><symbol id="icon-social-vk" viewBox="0 0 16 9">
<path d="M15.8574 8.02743C15.8144 7.95645 15.5484 7.38659 14.2683 6.21531C12.9282 4.98883 13.1082 5.18799 14.7223 3.06728C15.7054 1.77572 16.0984 0.986988 15.9754 0.649804C15.8584 0.328395 15.1353 0.413184 15.1353 0.413184L12.7312 0.426986C12.7312 0.426986 12.5531 0.403324 12.4201 0.481212C12.2911 0.558114 12.2081 0.735579 12.2081 0.735579C12.2081 0.735579 11.8271 1.7353 11.3191 2.58516C10.248 4.37855 9.81894 4.4732 9.64393 4.36179C9.2369 4.10249 9.33891 3.31869 9.33891 2.76263C9.33891 1.02445 9.60593 0.299803 8.81787 0.112478C8.55585 0.0503654 8.36384 0.00895679 7.69479 0.00205536C6.83672 -0.00681791 6.10967 0.00501311 5.69864 0.203183C5.42462 0.335296 5.21361 0.630086 5.34262 0.646846C5.50163 0.667551 5.86165 0.74248 6.05267 0.998819C6.29969 1.3291 6.29069 2.07248 6.29069 2.07248C6.29069 2.07248 6.4327 4.11827 5.95966 4.37263C5.63464 4.54714 5.1896 4.19122 4.23453 2.56347C3.7455 1.73037 3.37547 0.808537 3.37547 0.808537C3.37547 0.808537 3.30447 0.636987 3.17746 0.545297C3.02345 0.433888 2.80743 0.398395 2.80743 0.398395L0.521262 0.412198C0.521262 0.412198 0.178236 0.422057 0.0522271 0.568959C-0.0597811 0.700086 0.0432264 0.970227 0.0432264 0.970227C0.0432264 0.970227 1.83336 5.09827 3.85951 7.17954C5.71864 9.0873 7.8288 8.96208 7.8288 8.96208H8.78487C8.78487 8.96208 9.07389 8.93054 9.2209 8.77377C9.35691 8.62983 9.35191 8.35969 9.35191 8.35969C9.35191 8.35969 9.33291 7.09475 9.92895 6.90842C10.516 6.72504 11.2701 8.13095 12.0691 8.67222C12.6732 9.08138 13.1322 8.99166 13.1322 8.99166L15.2693 8.96208C15.2693 8.96208 16.3874 8.89406 15.8574 8.02743Z"/>
</symbol><symbol id="icon-star-empty" viewBox="0 0 15 14"><g fill="none">
<g clip-path="url(#clip0_248_2546)">
<path d="M7.74525 10.6055L7.5 10.4674L7.25475 10.6055L3.63071 12.6453L4.57642 8.85073L4.6535 8.54147L4.40569 8.34105L1.28779 5.81937L5.43318 5.48739L5.72674 5.46388L5.84852 5.19573L7.5 1.55927L9.15151 5.19574L9.27329 5.46388L9.56685 5.48739L13.7122 5.81937L10.5943 8.34105L10.3465 8.54147L10.4236 8.85073L11.3693 12.6453L7.74525 10.6055Z" stroke="white"/>
</g>

</g></symbol><symbol id="icon-star-fill" viewBox="0 0 15 14"><g fill="none">
<g clip-path="url(#clip0_248_2542)">
<path d="M7.5 11.0412L12.135 13.6501L10.9087 8.72981L15 5.4209L9.60676 4.98898L7.5 0.350098L5.39326 4.98898L0 5.4209L4.09126 8.72981L2.865 13.6501L7.5 11.0412Z" fill="white"/>
</g>

</g></symbol><symbol id="icon-sun" viewBox="0 0 20 20"><g fill="none">
<path d="M13.545 6.45505C12.6455 5.55558 11.3757 4.97357 10 4.97357C8.62433 4.97357 7.35449 5.52912 6.45502 6.45505C5.55555 7.35451 4.97354 8.62435 4.97354 10C4.97354 11.3757 5.55555 12.6455 6.45502 13.545C7.35449 14.4444 8.62433 15.0265 10 15.0265C11.3757 15.0265 12.6455 14.4709 13.545 13.545C14.4444 12.6455 15.0265 11.3757 15.0265 10C15.0265 8.62435 14.4709 7.35451 13.545 6.45505ZM12.5926 12.5926C11.9312 13.254 11.0053 13.6508 10 13.6508C8.9947 13.6508 8.06878 13.254 7.4074 12.5926C6.74603 11.9312 6.3492 11.0053 6.3492 10C6.3492 8.99472 6.74603 8.0688 7.4074 7.40742C8.06878 6.74605 8.9947 6.34923 10 6.34923C11.0053 6.34923 11.9312 6.74605 12.5926 7.40742C13.254 8.0688 13.6508 8.99472 13.6508 10C13.6508 11.0053 13.254 11.9312 12.5926 12.5926Z" fill="white"/>
<path d="M19.3122 9.3122H17.2751C16.9048 9.3122 16.5873 9.62966 16.5873 10C16.5873 10.3704 16.9048 10.6879 17.2751 10.6879H19.3122C19.6825 10.6879 20 10.3704 20 10C20 9.62966 19.6825 9.3122 19.3122 9.3122Z" fill="white"/>
<path d="M9.99999 16.5873C9.62962 16.5873 9.31216 16.9048 9.31216 17.2751V19.3122C9.31216 19.6825 9.62962 20 9.99999 20C10.3704 20 10.6878 19.6825 10.6878 19.3122V17.2751C10.6878 16.9048 10.3704 16.5873 9.99999 16.5873Z" fill="white"/>
<path d="M17.0635 16.1111L15.6085 14.656C15.3704 14.3915 14.9207 14.3915 14.6561 14.656C14.3916 14.9206 14.3916 15.3439 14.6561 15.6084L16.1111 17.0634C16.3757 17.328 16.799 17.328 17.0635 17.0634C17.3281 16.7989 17.3281 16.3756 17.0635 16.1111Z" fill="white"/>
<path d="M9.99999 0C9.62962 0 9.31216 0.317459 9.31216 0.687829V2.72486C9.31216 3.09523 9.62962 3.41269 9.99999 3.41269C10.3704 3.41269 10.6878 3.09523 10.6878 2.72486V0.687829C10.6878 0.317459 10.3704 0 9.99999 0Z" fill="white"/>
<path d="M17.0899 2.93653C16.8254 2.67198 16.4021 2.67198 16.1376 2.93653L14.6825 4.39155C14.418 4.6561 14.418 5.07938 14.6825 5.34393C14.9206 5.60848 15.3704 5.60848 15.6349 5.34393L17.0899 3.88891C17.3545 3.62436 17.3545 3.20108 17.0899 2.93653Z" fill="white"/>
<path d="M2.72487 9.3122H0.687831C0.31746 9.3122 0 9.62966 0 10C0 10.3704 0.291005 10.6879 0.687831 10.6879H2.72487C3.09524 10.6879 3.4127 10.3704 3.4127 10C3.4127 9.62966 3.09524 9.3122 2.72487 9.3122Z" fill="white"/>
<path d="M5.31746 14.656C5.07937 14.3915 4.62963 14.3915 4.36508 14.656L2.91005 16.1111C2.6455 16.3756 2.6455 16.7989 2.91005 17.0634C3.1746 17.328 3.59788 17.328 3.86243 17.0634L5.31746 15.6084C5.58201 15.3439 5.58201 14.9206 5.31746 14.656Z" fill="white"/>
<path d="M5.31746 4.39155L3.86243 2.93653C3.59788 2.67198 3.1746 2.67198 2.91005 2.93653C2.6455 3.20108 2.6455 3.62436 2.91005 3.88891L4.36508 5.34393C4.62963 5.60848 5.05291 5.60848 5.31746 5.34393C5.58201 5.07938 5.58201 4.6561 5.31746 4.39155Z" fill="white"/>
</g></symbol><symbol id="icon-swiper-next" viewBox="0 0 14 8">
<path d="M13.3536 4.35355C13.5488 4.15829 13.5488 3.84171 13.3536 3.64645L10.1716 0.464466C9.97631 0.269204 9.65973 0.269204 9.46447 0.464466C9.2692 0.659728 9.2692 0.976311 9.46447 1.17157L12.2929 4L9.46447 6.82843C9.2692 7.02369 9.2692 7.34027 9.46447 7.53553C9.65973 7.7308 9.97631 7.7308 10.1716 7.53553L13.3536 4.35355ZM0 4.5H13V3.5H0V4.5Z"/>
</symbol><symbol id="icon-swiper-prev" viewBox="0 0 14 8">
<path d="M0.646446 4.35355C0.451184 4.15829 0.451184 3.84171 0.646446 3.64645L3.82843 0.464466C4.02369 0.269204 4.34027 0.269204 4.53553 0.464466C4.7308 0.659728 4.7308 0.976311 4.53553 1.17157L1.70711 4L4.53553 6.82843C4.7308 7.02369 4.7308 7.34027 4.53553 7.53553C4.34027 7.7308 4.02369 7.7308 3.82843 7.53553L0.646446 4.35355ZM14 4.5H1V3.5H14V4.5Z"/>
</symbol><symbol id="icon-trees" viewBox="0 0 23 23"><g fill="none">
<path d="M22.6246 16.6365L18.1102 11.472H20.2913C20.546 11.4714 20.7519 11.2644 20.7514 11.0098C20.7511 10.9084 20.7175 10.8099 20.6556 10.7296L17.0312 5.96623H18.8757C19.1304 5.96589 19.3365 5.75919 19.3363 5.50454C19.3361 5.39271 19.2953 5.28475 19.2215 5.20077L14.7856 0.156126C14.6172 -0.0348923 14.3257 -0.0531642 14.1347 0.115317C14.1202 0.128056 14.1066 0.141716 14.0939 0.156126L9.65332 5.19616C9.4827 5.38522 9.49763 5.67682 9.68663 5.84744C9.77229 5.92473 9.88376 5.9671 9.99916 5.96623H11.8667L10.7508 7.42337L7.76273 4.02492C7.5943 3.8339 7.30288 3.81563 7.11186 3.98411C7.09739 3.99685 7.08379 4.01051 7.07105 4.02492L3.27604 8.33639C3.10796 8.52769 3.12681 8.81906 3.31811 8.98714C3.40209 9.06092 3.51005 9.10167 3.62188 9.10184H5.08362L2.04946 13.0721C1.89919 13.2777 1.94398 13.5662 2.14958 13.7165C2.22636 13.7726 2.31864 13.8036 2.41374 13.8053H4.11988L0.370984 18.1167C0.205442 18.3102 0.228094 18.6013 0.421649 18.7669C0.503959 18.8373 0.608518 18.8765 0.716823 18.8776H5.8168V22.1054C5.8168 22.5994 6.21734 23 6.71138 23H8.11779C8.61182 23.0025 9.01444 22.6041 9.01697 22.11C9.01697 22.1085 9.01697 22.107 9.01697 22.1054V18.8776H12.8443V22.1054C12.8443 22.5994 13.2448 23 13.7388 23H15.1453C15.6393 23 16.0398 22.5994 16.0398 22.1054V17.402H22.2788C22.5334 17.4017 22.7396 17.195 22.7393 16.9403C22.7391 16.8285 22.6984 16.7205 22.6246 16.6365ZM8.09473 22.0777L6.73904 22.1054L6.71138 18.8776H8.09473V22.0777ZM12.8443 17.9553H1.73129L5.50324 13.6531C5.67397 13.4642 5.65916 13.1726 5.47021 13.0018C5.38214 12.9223 5.2668 12.8797 5.14818 12.883H3.34981L6.38398 8.91279C6.53932 8.71099 6.50168 8.42146 6.29988 8.26612C6.21953 8.20428 6.12109 8.17061 6.0197 8.17038H4.63634L7.40306 5.02094L10.1698 8.16116L8.22385 10.7342C8.06851 10.936 8.10615 11.2255 8.30795 11.3809C8.3883 11.4427 8.48674 11.4764 8.58813 11.4766H10.7738L6.25948 16.6411C6.0914 16.8325 6.11025 17.1238 6.30156 17.2919C6.38554 17.3657 6.4935 17.4064 6.60532 17.4066H12.8443V17.9553ZM15.1176 22.0685L13.7665 22.1054L13.7388 17.402H15.1222L15.1176 22.0685ZM15.1453 16.4798H7.61978L12.1341 11.3152C12.3022 11.1239 12.2834 10.8325 12.0921 10.6645C12.0081 10.5907 11.9001 10.5499 11.7883 10.5498H9.52421L13.167 5.78178C13.3199 5.57808 13.2786 5.28902 13.0749 5.13622C12.9963 5.07731 12.901 5.04497 12.8028 5.04399H11.0367L14.4582 1.16137L17.8612 5.04399H16.0813C15.8267 5.04463 15.6207 5.25155 15.6213 5.50621C15.6215 5.6076 15.6552 5.70605 15.717 5.7864L19.3368 10.5498H17.0912C16.8365 10.5501 16.6303 10.7568 16.6306 11.0115C16.6307 11.1233 16.6716 11.2312 16.7453 11.3152L21.2597 16.4798H15.1453Z" fill="#2D383F"/>
</g></symbol><symbol id="icon-video-play-btn" viewBox="0 0 12 22">
<path d="M12 11L0 0V22L12 11Z"/>
</symbol></svg>